<mxfile host="app.diagrams.net" modified="2020-11-09T21:03:33.191Z" agent="5.0 (Macintosh; Intel Mac OS X 10_15_5) AppleWebKit/537.36 (KHTML, like Gecko) Chrome/86.0.4240.183 Safari/537.36" etag="dwEngKaGBflcL47Y45Ah" version="13.9.2" type="github">
  <diagram id="nGWeb2T-b6aRDUTrY9Ne" name="Page-1">
    <mxGraphModel dx="1542" dy="979" grid="1" gridSize="10" guides="1" tooltips="1" connect="1" arrows="1" fold="1" page="1" pageScale="1" pageWidth="850" pageHeight="1100" math="0" shadow="0">
      <root>
        <mxCell id="0" />
        <mxCell id="1" parent="0" />
        <mxCell id="WKsc-8ktAoIpN4Bo7_Br-1" value="WAF" style="whiteSpace=wrap;html=1;aspect=fixed;" vertex="1" parent="1">
          <mxGeometry x="90" y="330" width="80" height="80" as="geometry" />
        </mxCell>
        <object placeholders="1" c4Name="UsuÃ¡rio" c4Type="Person" c4Description="Description" label="&lt;b&gt;%c4Name%&lt;/b&gt;&lt;div&gt;[%c4Type%]&lt;/div&gt;&lt;br&gt;&lt;div&gt;%c4Description%&lt;/div&gt;" id="WKsc-8ktAoIpN4Bo7_Br-5">
          <mxCell style="html=1;dashed=0;whitespace=wrap;fillColor=#08427b;strokeColor=none;fontColor=#ffffff;shape=mxgraph.c4.person;align=center;metaEdit=1;points=[[0.5,0,0],[1,0.5,0],[1,0.75,0],[0.75,1,0],[0.5,1,0],[0.25,1,0],[0,0.75,0],[0,0.5,0]];metaData={&quot;c4Type&quot;:{&quot;editable&quot;:false}};" vertex="1" parent="1">
            <mxGeometry x="80" y="30" width="110.00000000000001" height="140" as="geometry" />
          </mxCell>
        </object>
        <mxCell id="WKsc-8ktAoIpN4Bo7_Br-6" value="DNS" style="whiteSpace=wrap;html=1;aspect=fixed;dashed=1;gradientColor=none;" vertex="1" parent="1">
          <mxGeometry x="440" y="70" width="80" height="80" as="geometry" />
        </mxCell>
        <object placeholders="1" c4Type="Relationship" c4Technology="cname" c4Description="plataforma.carguero.com.br" label="&lt;div style=&quot;text-align: left&quot;&gt;&lt;div style=&quot;text-align: center&quot;&gt;&lt;b&gt;%c4Description%&lt;/b&gt;&lt;/div&gt;&lt;div style=&quot;text-align: center&quot;&gt;[%c4Technology%]&lt;/div&gt;&lt;/div&gt;" id="WKsc-8ktAoIpN4Bo7_Br-7">
          <mxCell style="edgeStyle=none;rounded=0;html=1;jettySize=auto;orthogonalLoop=1;strokeColor=#707070;strokeWidth=2;fontColor=#707070;jumpStyle=none;dashed=1;metaEdit=1;metaData={&quot;c4Type&quot;:{&quot;editable&quot;:false}};entryX=-0.037;entryY=0.6;entryDx=0;entryDy=0;entryPerimeter=0;exitX=0.991;exitY=0.65;exitDx=0;exitDy=0;exitPerimeter=0;" edge="1" parent="1" source="WKsc-8ktAoIpN4Bo7_Br-5" target="WKsc-8ktAoIpN4Bo7_Br-6">
            <mxGeometry width="160" relative="1" as="geometry">
              <mxPoint x="240" y="120" as="sourcePoint" />
              <mxPoint x="370" y="120" as="targetPoint" />
            </mxGeometry>
          </mxCell>
        </object>
        <object placeholders="1" c4Type="Relationship" c4Technology="technology" c4Description="Description" label="&lt;div style=&quot;text-align: left&quot;&gt;&lt;div style=&quot;text-align: center&quot;&gt;&lt;b&gt;%c4Description%&lt;/b&gt;&lt;/div&gt;&lt;div style=&quot;text-align: center&quot;&gt;[%c4Technology%]&lt;/div&gt;&lt;/div&gt;" id="WKsc-8ktAoIpN4Bo7_Br-8">
          <mxCell style="edgeStyle=none;rounded=0;html=1;jettySize=auto;orthogonalLoop=1;strokeColor=#707070;strokeWidth=2;fontColor=#707070;jumpStyle=none;dashed=1;metaEdit=1;metaData={&quot;c4Type&quot;:{&quot;editable&quot;:false}};exitX=0.427;exitY=1.029;exitDx=0;exitDy=0;exitPerimeter=0;" edge="1" parent="1" source="WKsc-8ktAoIpN4Bo7_Br-5" target="WKsc-8ktAoIpN4Bo7_Br-1">
            <mxGeometry width="160" relative="1" as="geometry">
              <mxPoint x="340" y="480" as="sourcePoint" />
              <mxPoint x="500" y="480" as="targetPoint" />
            </mxGeometry>
          </mxCell>
        </object>
        <mxCell id="WKsc-8ktAoIpN4Bo7_Br-10" value="" style="group" vertex="1" connectable="0" parent="1">
          <mxGeometry x="360" y="510" width="470" height="440" as="geometry" />
        </mxCell>
        <mxCell id="WKsc-8ktAoIpN4Bo7_Br-3" value="" style="whiteSpace=wrap;html=1;aspect=fixed;dashed=1;" vertex="1" parent="WKsc-8ktAoIpN4Bo7_Br-10">
          <mxGeometry width="440" height="440" as="geometry" />
        </mxCell>
        <mxCell id="WKsc-8ktAoIpN4Bo7_Br-4" value="ECOSISTEMA" style="text;html=1;strokeColor=none;fillColor=none;align=center;verticalAlign=middle;whiteSpace=wrap;rounded=0;dashed=1;" vertex="1" parent="WKsc-8ktAoIpN4Bo7_Br-10">
          <mxGeometry x="119.16666666666666" y="119.16666666666666" width="229.16666666666666" height="210.83333333333331" as="geometry" />
        </mxCell>
        <mxCell id="WKsc-8ktAoIpN4Bo7_Br-12" value="PROXY" style="text;html=1;strokeColor=none;fillColor=none;align=center;verticalAlign=middle;whiteSpace=wrap;rounded=0;dashed=1;" vertex="1" parent="WKsc-8ktAoIpN4Bo7_Br-10">
          <mxGeometry x="10" y="20" width="130" height="30" as="geometry" />
        </mxCell>
        <object placeholders="1" c4Name="API" c4Type="Software System" c4Description="Descript" label="&lt;b&gt;%c4Name%&lt;/b&gt;&lt;div&gt;[%c4Type%]&lt;/div&gt;&lt;br&gt;&lt;div&gt;%c4Description%&lt;/div&gt;" id="WKsc-8ktAoIpN4Bo7_Br-16">
          <mxCell style="rounded=1;whiteSpace=wrap;html=1;labelBackgroundColor=none;fillColor=#1168BD;fontColor=#ffffff;align=center;arcSize=10;strokeColor=#1168BD;metaEdit=1;metaData={&quot;c4Type&quot;:{&quot;editable&quot;:false}};points=[[0.25,0,0],[0.5,0,0],[0.75,0,0],[1,0.25,0],[1,0.5,0],[1,0.75,0],[0.75,1,0],[0.5,1,0],[0.25,1,0],[0,0.75,0],[0,0.5,0],[0,0.25,0]];dashed=1;" vertex="1" parent="WKsc-8ktAoIpN4Bo7_Br-10">
            <mxGeometry x="10" y="300" width="160" height="110.00000000000001" as="geometry" />
          </mxCell>
        </object>
        <object placeholders="1" c4Type="Database" c4Technology="SQL-SERVER" c4Description="" label="%c4Type%&lt;div&gt;[Container:&amp;nbsp;%c4Technology%]&lt;/div&gt;&lt;br&gt;&lt;div&gt;%c4Description%&lt;/div&gt;" id="WKsc-8ktAoIpN4Bo7_Br-17">
          <mxCell style="shape=cylinder;whiteSpace=wrap;html=1;boundedLbl=1;rounded=0;labelBackgroundColor=none;fillColor=#438DD5;fontSize=12;fontColor=#ffffff;align=center;strokeColor=#3C7FC0;metaEdit=1;points=[[0.5,0,0],[1,0.25,0],[1,0.5,0],[1,0.75,0],[0.5,1,0],[0,0.75,0],[0,0.5,0],[0,0.25,0]];metaData={&quot;c4Type&quot;:{&quot;editable&quot;:false}};dashed=1;" vertex="1" parent="WKsc-8ktAoIpN4Bo7_Br-10">
            <mxGeometry x="330" y="300" width="100" height="110" as="geometry" />
          </mxCell>
        </object>
        <object placeholders="1" c4Type="Relationship" c4Technology="" c4Description="" label="&lt;div style=&quot;text-align: left&quot;&gt;&lt;div style=&quot;text-align: center&quot;&gt;&lt;b&gt;%c4Description%&lt;/b&gt;&lt;/div&gt;&lt;div style=&quot;text-align: center&quot;&gt;[%c4Technology%]&lt;/div&gt;&lt;/div&gt;" id="WKsc-8ktAoIpN4Bo7_Br-18">
          <mxCell style="edgeStyle=none;rounded=0;html=1;entryX=-0.02;entryY=0.591;jettySize=auto;orthogonalLoop=1;strokeColor=#707070;strokeWidth=2;fontColor=#707070;jumpStyle=none;dashed=1;metaEdit=1;metaData={&quot;c4Type&quot;:{&quot;editable&quot;:false}};exitX=1;exitY=0.6;exitDx=0;exitDy=0;exitPerimeter=0;entryDx=0;entryDy=0;entryPerimeter=0;" edge="1" parent="WKsc-8ktAoIpN4Bo7_Br-10" source="WKsc-8ktAoIpN4Bo7_Br-16" target="WKsc-8ktAoIpN4Bo7_Br-17">
            <mxGeometry width="160" relative="1" as="geometry">
              <mxPoint x="-10" y="200" as="sourcePoint" />
              <mxPoint x="150" y="200" as="targetPoint" />
            </mxGeometry>
          </mxCell>
        </object>
        <mxCell id="WKsc-8ktAoIpN4Bo7_Br-13" value="UMBRELLA" style="whiteSpace=wrap;html=1;aspect=fixed;dashed=1;gradientColor=none;" vertex="1" parent="1">
          <mxGeometry x="90" y="560" width="80" height="80" as="geometry" />
        </mxCell>
        <object placeholders="1" c4Type="Relationship" c4Technology="technology" c4Description="Description" label="&lt;div style=&quot;text-align: left&quot;&gt;&lt;div style=&quot;text-align: center&quot;&gt;&lt;b&gt;%c4Description%&lt;/b&gt;&lt;/div&gt;&lt;div style=&quot;text-align: center&quot;&gt;[%c4Technology%]&lt;/div&gt;&lt;/div&gt;" id="WKsc-8ktAoIpN4Bo7_Br-14">
          <mxCell style="edgeStyle=none;rounded=0;html=1;jettySize=auto;orthogonalLoop=1;strokeColor=#707070;strokeWidth=2;fontColor=#707070;jumpStyle=none;dashed=1;metaEdit=1;metaData={&quot;c4Type&quot;:{&quot;editable&quot;:false}};exitX=0.5;exitY=1;exitDx=0;exitDy=0;" edge="1" parent="1" source="WKsc-8ktAoIpN4Bo7_Br-1" target="WKsc-8ktAoIpN4Bo7_Br-13">
            <mxGeometry width="160" relative="1" as="geometry">
              <mxPoint x="340" y="520" as="sourcePoint" />
              <mxPoint x="500" y="520" as="targetPoint" />
            </mxGeometry>
          </mxCell>
        </object>
        <object placeholders="1" c4Type="Relationship" c4Technology="technology" c4Description="Description" label="&lt;div style=&quot;text-align: left&quot;&gt;&lt;div style=&quot;text-align: center&quot;&gt;&lt;b&gt;%c4Description%&lt;/b&gt;&lt;/div&gt;&lt;div style=&quot;text-align: center&quot;&gt;[%c4Technology%]&lt;/div&gt;&lt;/div&gt;" id="WKsc-8ktAoIpN4Bo7_Br-15">
          <mxCell style="edgeStyle=none;rounded=0;html=1;entryX=0;entryY=0.5;jettySize=auto;orthogonalLoop=1;strokeColor=#707070;strokeWidth=2;fontColor=#707070;jumpStyle=none;dashed=1;metaEdit=1;metaData={&quot;c4Type&quot;:{&quot;editable&quot;:false}};exitX=1.013;exitY=0.6;exitDx=0;exitDy=0;exitPerimeter=0;entryDx=0;entryDy=0;" edge="1" parent="1" source="WKsc-8ktAoIpN4Bo7_Br-13" target="WKsc-8ktAoIpN4Bo7_Br-3">
            <mxGeometry width="160" relative="1" as="geometry">
              <mxPoint x="340" y="520" as="sourcePoint" />
              <mxPoint x="500" y="520" as="targetPoint" />
            </mxGeometry>
          </mxCell>
        </object>
      </root>
    </mxGraphModel>
  </diagram>
</mxfile>
